# xmcd CD database file
#
# Track frame offsets:
#	150
#	9775
#	19500
#	39662
#	49142
#	62515
#	72852
#	84602
#	96872
#	112942
#	145530
#	159735
#	174772
#	196652
#	213160
#	246675
#	264710
#	317995
#
# Disc length: 4486 seconds
#
# Revision: 0
# Processed by: cddbd v1.5.1PL0 Copyright (c) Steve Scherf et al.
# Submitted via: CDex 1.60beta1
#
DISCID=eb118412
DTITLE=Bobby Cole - A Point Of View
DYEAR=1964
DGENRE=Jazz Vocal
TTITLE0=Status Quo
TTITLE1=The Name Of The Game Is Trouble
TTITLE2=Lover Boy
TTITLE3=You Can't Build A Life On A Look
TTITLE4=But It's Spring
TTITLE5=Heat
TTITLE6=You Could Hear A Pin Drop
TTITLE7=A Change Of Scene
TTITLE8=A Perfect Day
TTITLE9=Elegy For Eve
TTITLE10=No Difference At All
TTITLE11=I'm Growing Old
TTITLE12=So Sleeps The Pride
TTITLE13=Tango
TTITLE14=Paper Wedding
TTITLE15=Hole In The Corner Man
TTITLE16=The Sailor
TTITLE17=I'm Growing Old
EXTD=YEAR: 1964
EXTT0=
EXTT1=
EXTT2=
EXTT3=
EXTT4=
EXTT5=
EXTT6=
EXTT7=
EXTT8=
EXTT9=
EXTT10=
EXTT11=
EXTT12=
EXTT13=
EXTT14=
EXTT15=
EXTT16=
EXTT17=
PLAYORDER=
